<svg width="258" height="218" viewBox="0 0 258 218" fill="none" xmlns="http://www.w3.org/2000/svg">
<path d="M65 0H195C208.807 0 220 11.1929 220 25V41C220 54.8071 208.807 66 195 66H65V0Z" fill="#1C4BB9"/>
<rect x="65" y="66" width="38" height="81" fill="#1C4BB9"/>
<path d="M101 68.2461L120.026 51L230 147.187L172.555 147.187L101 68.2461Z" fill="#1C4BB9"/>
<path fill-rule="evenodd" clip-rule="evenodd" d="M150.508 60.2722C149.054 60.3315 147.537 60.3617 145.954 60.3617C114.476 60.3617 88.9592 48.4163 88.9592 33.6809C88.9592 18.9454 114.476 7 145.954 7C177.431 7 183 18.9454 183 33.6809C183 42.8319 180.852 50.907 171.685 55.7131V113.723L0.5 104L145.286 95.2894L150.508 60.2722Z" fill="#22BB83"/>
<path d="M120 22H153.5C159.851 22 165 27.1487 165 33.5V33.5C165 39.8513 159.851 45 153.5 45H120V22Z" fill="white"/>
<path d="M25.8125 158.469C25.8125 157.865 25.7604 157.427 25.6562 157.156C25.5729 156.885 25.5312 156.635 25.5312 156.406C25.5312 156.094 25.6979 155.833 26.0312 155.625C26.3646 155.417 26.7604 155.312 27.2188 155.312C28.2812 155.312 29.1354 155.594 29.7812 156.156C30.4479 156.698 30.7812 157.365 30.7812 158.156V179.062C31.5938 178.917 32.4792 178.667 33.4375 178.312C34.4167 177.958 35.3854 177.49 36.3438 176.906C37.3229 176.302 38.2604 175.573 39.1562 174.719C40.0729 173.865 40.875 172.865 41.5625 171.719C42.2708 170.573 42.8333 169.281 43.25 167.844C43.6875 166.385 43.9062 164.75 43.9062 162.938C43.9062 161.729 43.6979 160.479 43.2812 159.188C42.8854 157.896 42.2604 156.719 41.4062 155.656C40.5521 154.594 39.4479 153.719 38.0938 153.031C36.7604 152.344 35.1562 152 33.2812 152C30.8229 152 28.6979 152.406 26.9062 153.219C25.1146 154.031 23.6354 155.125 22.4688 156.5C21.3021 157.854 20.4375 159.406 19.875 161.156C19.3125 162.906 19.0312 164.719 19.0312 166.594C19.0312 168.01 19.1458 169.208 19.375 170.188C19.625 171.146 19.8958 171.938 20.1875 172.562C20.4792 173.167 20.75 173.615 21 173.906C21.25 174.198 21.3958 174.365 21.4375 174.406C21.7917 174.302 22.0417 174.344 22.1875 174.531C22.3333 174.719 22.4062 174.969 22.4062 175.281C22.4062 175.573 22.3021 176.01 22.0938 176.594C21.9062 177.177 21.6458 177.729 21.3125 178.25C20.9792 178.75 20.5938 179.135 20.1562 179.406C19.7188 179.656 19.2708 179.604 18.8125 179.25C18.5625 179.021 18.1771 178.604 17.6562 178C17.1354 177.396 16.6146 176.594 16.0938 175.594C15.5938 174.573 15.1458 173.354 14.75 171.938C14.3542 170.5 14.1562 168.844 14.1562 166.969C14.1562 164.01 14.6146 161.323 15.5312 158.906C16.4479 156.469 17.7396 154.385 19.4062 152.656C21.0938 150.906 23.1042 149.562 25.4375 148.625C27.7708 147.667 30.3646 147.188 33.2188 147.188C35.5521 147.188 37.6771 147.573 39.5938 148.344C41.5104 149.115 43.1562 150.198 44.5312 151.594C45.9062 152.969 46.9688 154.615 47.7188 156.531C48.4688 158.448 48.8438 160.542 48.8438 162.812C48.8438 165 48.5208 167.052 47.875 168.969C47.25 170.885 46.3854 172.635 45.2812 174.219C44.1771 175.802 42.8854 177.208 41.4062 178.438C39.9479 179.667 38.375 180.667 36.6875 181.438C37.75 182.042 38.625 182.781 39.3125 183.656C40.0208 184.51 40.6146 185.438 41.0938 186.438C41.5938 187.417 42.0208 188.448 42.375 189.531C42.75 190.615 43.125 191.677 43.5 192.719C43.875 193.781 44.3021 194.802 44.7812 195.781C45.2604 196.76 45.8646 197.635 46.5938 198.406C46.6771 198.51 46.7812 198.583 46.9062 198.625C47.0521 198.688 47.1875 198.74 47.3125 198.781C47.4583 198.844 47.5729 198.906 47.6562 198.969C47.7604 199.052 47.8125 199.156 47.8125 199.281C47.8125 199.594 47.6354 199.938 47.2812 200.312C46.9271 200.708 46.5104 201.073 46.0312 201.406C45.5521 201.76 45.0625 202.052 44.5625 202.281C44.0833 202.51 43.7188 202.625 43.4688 202.625C43.1562 202.625 42.875 202.5 42.625 202.25C41.5833 201.062 40.7708 199.823 40.1875 198.531C39.6042 197.26 39.1146 195.99 38.7188 194.719C38.3229 193.469 37.9583 192.25 37.625 191.062C37.2917 189.875 36.8542 188.781 36.3125 187.781C35.7917 186.781 35.1042 185.906 34.25 185.156C33.3958 184.406 32.2396 183.833 30.7812 183.438V192.312C30.7812 192.854 30.6042 193.229 30.25 193.438C29.8958 193.667 29.4792 193.781 29 193.781C28.625 193.781 28.25 193.729 27.875 193.625C27.5 193.521 27.1562 193.385 26.8438 193.219C26.5521 193.052 26.3021 192.854 26.0938 192.625C25.9062 192.417 25.8125 192.188 25.8125 191.938V158.469ZM64.7812 161.906C65.2604 161.948 65.7917 161.979 66.375 162C66.875 162.042 67.4792 162.073 68.1875 162.094C68.8958 162.094 69.6875 162.104 70.5625 162.125V151.281C70.5625 150.823 70.5208 150.458 70.4375 150.188C70.375 149.917 70.3021 149.708 70.2188 149.562C70.1562 149.396 70.0833 149.271 70 149.188C69.9375 149.083 69.9062 148.979 69.9062 148.875C69.9062 148.75 69.9688 148.646 70.0938 148.562C70.2188 148.479 70.3854 148.406 70.5938 148.344C70.8021 148.281 71.0208 148.24 71.25 148.219C71.5 148.177 71.7396 148.156 71.9688 148.156C73.0312 148.156 73.8646 148.438 74.4688 149C75.0938 149.542 75.4062 150.198 75.4062 150.969V162.188C77.3646 162.188 79.4271 162.167 81.5938 162.125C83.7812 162.083 85.9688 162.01 88.1562 161.906C88.4479 161.594 88.6771 161.479 88.8438 161.562C89.0312 161.646 89.1458 161.844 89.1875 162.156C89.25 162.469 89.2604 162.854 89.2188 163.312C89.1771 163.771 89.0938 164.219 88.9688 164.656C88.8438 165.073 88.6667 165.438 88.4375 165.75C88.2292 166.062 87.9896 166.219 87.7188 166.219C85.1562 166.281 82.8854 166.323 80.9062 166.344C78.9479 166.344 77.1146 166.344 75.4062 166.344V186.625C75.4062 187.667 75.6042 188.417 76 188.875C76.3958 189.333 76.9271 189.562 77.5938 189.562C78.2396 189.562 78.7917 189.333 79.25 188.875C79.7292 188.417 80.1354 187.844 80.4688 187.156C80.8229 186.469 81.1042 185.729 81.3125 184.938C81.5417 184.125 81.7292 183.365 81.875 182.656C82 181.99 82.2083 181.51 82.5 181.219C82.7917 180.906 83.0938 180.75 83.4062 180.75C83.6562 180.75 83.9167 180.833 84.1875 181C84.4583 181.146 84.6979 181.344 84.9062 181.594C85.1354 181.844 85.3125 182.125 85.4375 182.438C85.5833 182.75 85.6562 183.062 85.6562 183.375C85.6562 183.417 85.6562 183.469 85.6562 183.531C85.6562 183.594 85.6354 183.688 85.5938 183.812C85.3229 184.875 84.9479 185.99 84.4688 187.156C84.0104 188.323 83.4062 189.396 82.6562 190.375C81.9271 191.354 81.0521 192.167 80.0312 192.812C79.0104 193.458 77.8125 193.781 76.4375 193.781C75.5833 193.781 74.7917 193.646 74.0625 193.375C73.3542 193.125 72.7396 192.708 72.2188 192.125C71.6979 191.562 71.2917 190.833 71 189.938C70.7083 189.042 70.5625 187.958 70.5625 186.688V166.344C69.8542 166.344 69.2188 166.344 68.6562 166.344C68.1146 166.323 67.6562 166.302 67.2812 166.281C66.8438 166.26 66.4583 166.24 66.125 166.219C65.625 166.219 65.1875 166 64.8125 165.562C64.4167 165.104 64.1458 164.604 64 164.062C63.8333 163.521 63.8125 163.031 63.9375 162.594C64.0417 162.135 64.3229 161.906 64.7812 161.906ZM125.281 181.438C125.323 181.188 125.458 180.979 125.688 180.812C125.938 180.646 126.219 180.531 126.531 180.469C126.844 180.406 127.167 180.406 127.5 180.469C127.854 180.531 128.156 180.677 128.406 180.906C128.677 181.115 128.865 181.417 128.969 181.812C129.094 182.188 129.083 182.677 128.938 183.281C128.75 184.156 128.438 184.979 128 185.75C127.583 186.5 127.052 187.167 126.406 187.75C125.76 188.333 125 188.792 124.125 189.125C123.25 189.458 122.271 189.625 121.188 189.625C120.604 189.625 120.052 189.594 119.531 189.531C119.031 189.469 118.542 189.354 118.062 189.188C117.271 190.562 116.25 191.667 115 192.5C113.75 193.354 112.208 193.781 110.375 193.781C108.75 193.781 107.354 193.458 106.188 192.812C105.021 192.188 104.052 191.333 103.281 190.25C102.51 189.146 101.938 187.875 101.562 186.438C101.208 185 101.031 183.479 101.031 181.875C101.031 179.521 101.302 177.417 101.844 175.562C102.406 173.688 103.052 172.104 103.781 170.812C104.51 169.5 105.229 168.5 105.938 167.812C106.667 167.125 107.208 166.781 107.562 166.781C107.979 166.781 108.354 166.969 108.688 167.344C109.042 167.698 109.292 168.125 109.438 168.625C109.604 169.104 109.646 169.594 109.562 170.094C109.5 170.594 109.26 170.979 108.844 171.25C108.594 171.646 108.292 172.104 107.938 172.625C107.604 173.146 107.281 173.802 106.969 174.594C106.677 175.365 106.427 176.312 106.219 177.438C106.01 178.562 105.906 179.917 105.906 181.5C105.906 182.854 106.021 184.031 106.25 185.031C106.5 186.031 106.833 186.875 107.25 187.562C107.688 188.229 108.177 188.729 108.719 189.062C109.281 189.396 109.875 189.562 110.5 189.562C111.417 189.562 112.167 189.344 112.75 188.906C113.354 188.448 113.865 187.854 114.281 187.125C112.781 185.833 111.635 184.198 110.844 182.219C110.073 180.219 109.688 178.062 109.688 175.75C109.688 174.75 109.792 173.802 110 172.906C110.229 171.99 110.552 171.188 110.969 170.5C111.406 169.812 111.948 169.271 112.594 168.875C113.24 168.458 113.99 168.25 114.844 168.25C115.594 168.25 116.302 168.521 116.969 169.062C117.635 169.604 118.219 170.354 118.719 171.312C119.219 172.271 119.604 173.406 119.875 174.719C120.167 176.031 120.312 177.458 120.312 179C120.312 180.188 120.24 181.365 120.094 182.531C119.948 183.698 119.719 184.823 119.406 185.906C119.635 185.99 119.844 186.042 120.031 186.062C120.24 186.062 120.458 186.062 120.688 186.062C121.375 186.062 121.979 185.938 122.5 185.688C123.042 185.438 123.5 185.104 123.875 184.688C124.25 184.271 124.552 183.781 124.781 183.219C125.01 182.656 125.177 182.062 125.281 181.438ZM113.062 175.5C113.062 176.938 113.281 178.302 113.719 179.594C114.177 180.885 114.771 182.01 115.5 182.969C115.625 181.948 115.688 180.969 115.688 180.031C115.688 178.948 115.667 177.948 115.625 177.031C115.604 176.094 115.531 175.292 115.406 174.625C115.302 173.958 115.146 173.438 114.938 173.062C114.75 172.667 114.49 172.469 114.156 172.469C113.427 172.469 113.062 173.479 113.062 175.5ZM176.281 189.562C176.927 189.562 177.479 189.333 177.938 188.875C178.417 188.417 178.823 187.844 179.156 187.156C179.51 186.469 179.792 185.729 180 184.938C180.229 184.125 180.417 183.365 180.562 182.656C180.708 181.99 180.917 181.51 181.188 181.219C181.479 180.906 181.792 180.75 182.125 180.75C182.375 180.75 182.625 180.833 182.875 181C183.146 181.146 183.385 181.344 183.594 181.594C183.823 181.844 184 182.125 184.125 182.438C184.271 182.75 184.344 183.062 184.344 183.375C184.344 183.417 184.344 183.469 184.344 183.531C184.344 183.594 184.323 183.688 184.281 183.812C184.01 184.875 183.635 185.99 183.156 187.156C182.698 188.323 182.104 189.396 181.375 190.375C180.646 191.354 179.76 192.167 178.719 192.812C177.698 193.458 176.5 193.781 175.125 193.781C174 193.781 173.021 193.542 172.188 193.062C171.354 192.583 170.698 191.948 170.219 191.156C169.573 191.885 168.792 192.5 167.875 193C166.979 193.521 165.927 193.781 164.719 193.781C163.469 193.781 162.365 193.531 161.406 193.031C160.469 192.531 159.677 191.854 159.031 191C158.385 190.125 157.896 189.104 157.562 187.938C157.25 186.75 157.094 185.479 157.094 184.125C157.094 181.458 157.521 179.062 158.375 176.938C159.229 174.812 160.365 173.01 161.781 171.531C163.198 170.031 164.812 168.885 166.625 168.094C168.458 167.302 170.354 166.906 172.312 166.906C173.188 166.906 173.896 167.146 174.438 167.625C174.979 168.104 175.25 168.76 175.25 169.594C175.25 170.135 175.188 170.521 175.062 170.75C174.958 170.958 174.75 171.062 174.438 171.062C174.146 171.062 173.844 171.042 173.531 171C173.219 170.958 172.896 170.938 172.562 170.938C171.354 170.938 170.125 171.208 168.875 171.75C167.625 172.271 166.49 173.083 165.469 174.188C164.469 175.271 163.646 176.656 163 178.344C162.354 180.01 162.031 182 162.031 184.312C162.031 186 162.354 187.302 163 188.219C163.646 189.115 164.531 189.562 165.656 189.562C166.531 189.562 167.26 189.24 167.844 188.594C168.427 187.927 168.896 187.146 169.25 186.25V176.375C169.25 176.062 169.229 175.802 169.188 175.594C169.167 175.385 169.135 175.208 169.094 175.062C169.073 174.917 169.052 174.792 169.031 174.688C169.01 174.562 169 174.448 169 174.344C169 174.01 169.156 173.75 169.469 173.562C169.802 173.354 170.198 173.25 170.656 173.25C171.719 173.25 172.562 173.531 173.188 174.094C173.812 174.635 174.125 175.292 174.125 176.062V186.625C174.125 186.979 174.167 187.333 174.25 187.688C174.333 188.021 174.458 188.333 174.625 188.625C174.792 188.896 175.01 189.125 175.281 189.312C175.573 189.479 175.906 189.562 176.281 189.562ZM230.344 173.375C230.344 174.562 230.135 175.781 229.719 177.031C229.323 178.281 228.719 179.469 227.906 180.594C227.115 181.698 226.125 182.698 224.938 183.594C223.771 184.469 222.417 185.135 220.875 185.594C221.083 186.135 221.354 186.656 221.688 187.156C222.042 187.635 222.458 188.052 222.938 188.406C223.417 188.76 223.969 189.042 224.594 189.25C225.24 189.458 225.979 189.562 226.812 189.562C228.062 189.562 229.135 189.333 230.031 188.875C230.927 188.396 231.677 187.771 232.281 187C232.906 186.229 233.406 185.365 233.781 184.406C234.156 183.448 234.438 182.479 234.625 181.5C234.771 180.792 235.062 180.323 235.5 180.094C235.958 179.844 236.417 179.781 236.875 179.906C237.354 180.031 237.76 180.302 238.094 180.719C238.448 181.115 238.594 181.594 238.531 182.156C238.448 182.802 238.302 183.542 238.094 184.375C237.906 185.208 237.615 186.052 237.219 186.906C236.823 187.76 236.312 188.604 235.688 189.438C235.083 190.25 234.333 190.979 233.438 191.625C232.542 192.271 231.49 192.792 230.281 193.188C229.073 193.583 227.688 193.781 226.125 193.781C224.667 193.781 223.25 193.49 221.875 192.906C220.521 192.344 219.312 191.531 218.25 190.469C217.208 189.385 216.365 188.062 215.719 186.5C215.094 184.917 214.781 183.125 214.781 181.125C214.781 179.104 215.062 177.229 215.625 175.5C216.188 173.75 216.927 172.24 217.844 170.969C218.76 169.698 219.802 168.708 220.969 168C222.135 167.271 223.333 166.906 224.562 166.906C225.458 166.906 226.26 167.062 226.969 167.375C227.698 167.688 228.312 168.135 228.812 168.719C229.312 169.281 229.688 169.958 229.938 170.75C230.208 171.542 230.344 172.417 230.344 173.375ZM220.031 180.938C220.031 181.125 220.042 181.312 220.062 181.5C220.083 181.688 220.094 181.885 220.094 182.094C220.885 181.719 221.604 181.24 222.25 180.656C222.896 180.073 223.448 179.406 223.906 178.656C224.365 177.906 224.719 177.094 224.969 176.219C225.219 175.323 225.344 174.396 225.344 173.438C225.344 172.729 225.219 172.177 224.969 171.781C224.74 171.385 224.417 171.188 224 171.188C223.479 171.188 223.01 171.365 222.594 171.719C222.198 172.073 221.844 172.542 221.531 173.125C221.24 173.688 220.99 174.333 220.781 175.062C220.594 175.771 220.438 176.49 220.312 177.219C220.188 177.948 220.104 178.646 220.062 179.312C220.021 179.958 220.01 180.5 220.031 180.938Z" fill="#22BB83"/>
<path d="M66.2812 173.375C66.2812 174.562 66.0729 175.781 65.6562 177.031C65.2604 178.281 64.6562 179.469 63.8438 180.594C63.0521 181.698 62.0625 182.698 60.875 183.594C59.7083 184.469 58.3542 185.135 56.8125 185.594C57.0208 186.135 57.2917 186.656 57.625 187.156C57.9792 187.635 58.3958 188.052 58.875 188.406C59.3542 188.76 59.9062 189.042 60.5312 189.25C61.1771 189.458 61.9167 189.562 62.75 189.562C64 189.562 65.0729 189.333 65.9688 188.875C66.8646 188.396 67.6146 187.771 68.2188 187C68.8438 186.229 69.3438 185.365 69.7188 184.406C70.0938 183.448 70.375 182.479 70.5625 181.5C70.7083 180.792 71 180.323 71.4375 180.094C71.8958 179.844 72.3542 179.781 72.8125 179.906C73.2917 180.031 73.6979 180.302 74.0312 180.719C74.3854 181.115 74.5312 181.594 74.4688 182.156C74.3854 182.802 74.2396 183.542 74.0312 184.375C73.8438 185.208 73.5521 186.052 73.1562 186.906C72.7604 187.76 72.25 188.604 71.625 189.438C71.0208 190.25 70.2708 190.979 69.375 191.625C68.4792 192.271 67.4271 192.792 66.2188 193.188C65.0104 193.583 63.625 193.781 62.0625 193.781C60.6042 193.781 59.1875 193.49 57.8125 192.906C56.4583 192.344 55.25 191.531 54.1875 190.469C53.1458 189.385 52.3021 188.062 51.6562 186.5C51.0312 184.917 50.7188 183.125 50.7188 181.125C50.7188 179.104 51 177.229 51.5625 175.5C52.125 173.75 52.8646 172.24 53.7812 170.969C54.6979 169.698 55.7396 168.708 56.9062 168C58.0729 167.271 59.2708 166.906 60.5 166.906C61.3958 166.906 62.1979 167.062 62.9062 167.375C63.6354 167.688 64.25 168.135 64.75 168.719C65.25 169.281 65.625 169.958 65.875 170.75C66.1458 171.542 66.2812 172.417 66.2812 173.375ZM55.9688 180.938C55.9688 181.125 55.9792 181.312 56 181.5C56.0208 181.688 56.0312 181.885 56.0312 182.094C56.8229 181.719 57.5417 181.24 58.1875 180.656C58.8333 180.073 59.3854 179.406 59.8438 178.656C60.3021 177.906 60.6562 177.094 60.9062 176.219C61.1562 175.323 61.2812 174.396 61.2812 173.438C61.2812 172.729 61.1562 172.177 60.9062 171.781C60.6771 171.385 60.3542 171.188 59.9375 171.188C59.4167 171.188 58.9479 171.365 58.5312 171.719C58.1354 172.073 57.7812 172.542 57.4688 173.125C57.1771 173.688 56.9271 174.333 56.7188 175.062C56.5312 175.771 56.375 176.49 56.25 177.219C56.125 177.948 56.0417 178.646 56 179.312C55.9583 179.958 55.9479 180.5 55.9688 180.938ZM96.125 193.781C95.375 193.781 94.6042 193.667 93.8125 193.438C93.0417 193.208 92.3333 192.812 91.6875 192.25C91.0625 191.688 90.5417 190.948 90.125 190.031C89.7292 189.094 89.5312 187.917 89.5312 186.5C89.5312 184.438 89.8021 182.26 90.3438 179.969C90.9062 177.656 91.7083 175.115 92.75 172.344H87.875H87.1562C87.1354 172.969 87.0938 173.76 87.0312 174.719C86.9896 175.677 86.9062 176.698 86.7812 177.781C86.6562 178.865 86.4896 179.958 86.2812 181.062C86.0938 182.167 85.8542 183.188 85.5625 184.125C85.3542 184.792 85.0208 185.177 84.5625 185.281C84.125 185.385 83.6875 185.312 83.25 185.062C82.8125 184.792 82.4583 184.406 82.1875 183.906C81.9167 183.406 81.8542 182.885 82 182.344C82.1667 181.698 82.3125 180.917 82.4375 180C82.5625 179.062 82.6562 178.083 82.7188 177.062C82.8021 176.021 82.8646 174.99 82.9062 173.969C82.9479 172.927 82.9792 172 83 171.188C82.2083 170.75 81.5521 170.198 81.0312 169.531C80.5104 168.844 80.25 168.031 80.25 167.094C80.25 166.656 80.3333 166.26 80.5 165.906C80.6875 165.531 80.9271 165.219 81.2188 164.969C81.5104 164.698 81.8542 164.5 82.25 164.375C82.6458 164.229 83.0521 164.156 83.4688 164.156C83.8438 164.156 84.2292 164.208 84.625 164.312C85.0417 164.417 85.4271 164.604 85.7812 164.875C86.1562 165.146 86.4896 165.5 86.7812 165.938C87.0729 166.375 87.3125 166.917 87.5 167.562C88.0208 167.625 88.4583 167.677 88.8125 167.719C89.1875 167.74 89.5 167.76 89.75 167.781C90 167.802 90.2083 167.812 90.375 167.812C90.5417 167.812 90.7083 167.812 90.875 167.812H94.2188C94.4062 167.812 94.6771 167.927 95.0312 168.156C95.4062 168.385 95.7708 168.688 96.125 169.062C96.4792 169.417 96.7708 169.802 97 170.219C97.25 170.635 97.3438 171.031 97.2812 171.406C97.2812 171.531 97.2083 171.833 97.0625 172.312C96.9167 172.792 96.7396 173.396 96.5312 174.125C96.3229 174.854 96.0938 175.698 95.8438 176.656C95.5938 177.594 95.3646 178.583 95.1562 179.625C94.9479 180.667 94.7708 181.75 94.625 182.875C94.4792 183.979 94.4062 185.062 94.4062 186.125C94.4062 186.562 94.4583 186.99 94.5625 187.406C94.6667 187.823 94.8229 188.198 95.0312 188.531C95.2396 188.844 95.5 189.094 95.8125 189.281C96.1458 189.469 96.5312 189.562 96.9688 189.562C97.6979 189.562 98.3229 189.333 98.8438 188.875C99.3646 188.417 99.8021 187.844 100.156 187.156C100.51 186.469 100.792 185.729 101 184.938C101.229 184.125 101.417 183.365 101.562 182.656C101.688 181.99 101.896 181.51 102.188 181.219C102.479 180.906 102.781 180.75 103.094 180.75C103.344 180.75 103.604 180.833 103.875 181C104.146 181.146 104.385 181.344 104.594 181.594C104.823 181.844 105 182.125 105.125 182.438C105.271 182.75 105.344 183.062 105.344 183.375C105.344 183.479 105.333 183.562 105.312 183.625C105.292 183.688 105.281 183.75 105.281 183.812C104.99 184.875 104.604 185.99 104.125 187.156C103.667 188.323 103.073 189.396 102.344 190.375C101.615 191.354 100.74 192.167 99.7188 192.812C98.6979 193.458 97.5 193.781 96.125 193.781ZM147.562 188.281C146.208 190.281 144.708 191.823 143.062 192.906C141.417 194.01 139.615 194.562 137.656 194.562C135.677 194.562 133.917 194.083 132.375 193.125C130.833 192.188 129.531 190.854 128.469 189.125C127.427 187.375 126.625 185.281 126.062 182.844C125.521 180.385 125.25 177.656 125.25 174.656C125.25 172.531 125.469 170.354 125.906 168.125C126.344 165.896 126.979 163.74 127.812 161.656C128.667 159.552 129.698 157.573 130.906 155.719C132.115 153.844 133.49 152.219 135.031 150.844C136.573 149.448 138.271 148.344 140.125 147.531C141.979 146.719 143.969 146.312 146.094 146.312C147.24 146.312 148.312 146.5 149.312 146.875C150.312 147.229 151.167 147.75 151.875 148.438C152.604 149.125 153.177 149.958 153.594 150.938C154.01 151.917 154.219 153.021 154.219 154.25C154.219 155.417 154.021 156.542 153.625 157.625C153.229 158.708 152.688 159.729 152 160.688C151.333 161.646 150.552 162.521 149.656 163.312C148.76 164.104 147.823 164.792 146.844 165.375C145.865 165.938 144.865 166.375 143.844 166.688C142.823 167 141.844 167.156 140.906 167.156C140.135 167.156 139.469 166.917 138.906 166.438C138.365 165.938 138.094 165.156 138.094 164.094C138.094 163.865 138.104 163.615 138.125 163.344C138.167 163.073 138.219 162.823 138.281 162.594C138.344 162.365 138.417 162.177 138.5 162.031C138.583 161.865 138.688 161.781 138.812 161.781C138.917 161.781 139.01 161.823 139.094 161.906C139.198 161.969 139.323 162.042 139.469 162.125C139.635 162.188 139.854 162.26 140.125 162.344C140.396 162.406 140.771 162.438 141.25 162.438C142.062 162.438 142.927 162.219 143.844 161.781C144.781 161.344 145.646 160.76 146.438 160.031C147.229 159.302 147.885 158.469 148.406 157.531C148.927 156.573 149.188 155.583 149.188 154.562C149.188 154.188 149.115 153.792 148.969 153.375C148.844 152.958 148.625 152.573 148.312 152.219C148.021 151.865 147.625 151.573 147.125 151.344C146.625 151.094 146.01 150.969 145.281 150.969C143.948 150.969 142.656 151.292 141.406 151.938C140.156 152.583 138.99 153.479 137.906 154.625C136.823 155.75 135.823 157.073 134.906 158.594C134.01 160.115 133.24 161.75 132.594 163.5C131.948 165.25 131.448 167.073 131.094 168.969C130.74 170.865 130.562 172.74 130.562 174.594C130.562 176.906 130.74 178.99 131.094 180.844C131.469 182.677 131.979 184.24 132.625 185.531C133.271 186.823 134.031 187.823 134.906 188.531C135.802 189.219 136.76 189.562 137.781 189.562C138.865 189.562 139.865 189.344 140.781 188.906C141.698 188.448 142.521 187.844 143.25 187.094C143.979 186.344 144.615 185.479 145.156 184.5C145.698 183.521 146.146 182.51 146.5 181.469C146.875 180.427 147.156 179.396 147.344 178.375C147.531 177.333 147.625 176.375 147.625 175.5C147.625 175.167 147.604 174.792 147.562 174.375C147.521 173.938 147.5 173.604 147.5 173.375C147.5 173.062 147.552 172.823 147.656 172.656C147.781 172.49 147.938 172.365 148.125 172.281C148.312 172.198 148.531 172.146 148.781 172.125C149.031 172.104 149.292 172.094 149.562 172.094C149.854 172.094 150.188 172.156 150.562 172.281C150.938 172.406 151.292 172.583 151.625 172.812C151.979 173.021 152.271 173.271 152.5 173.562C152.75 173.854 152.875 174.177 152.875 174.531C152.708 176.26 152.604 177.906 152.562 179.469C152.521 181.01 152.5 182.583 152.5 184.188C152.5 185.688 152.51 187.25 152.531 188.875C152.552 190.5 152.562 192.292 152.562 194.25C153.167 194.146 153.75 194.073 154.312 194.031C154.896 193.99 155.448 193.948 155.969 193.906C156.719 193.865 157.198 194.094 157.406 194.594C157.635 195.115 157.667 195.698 157.5 196.344C157.354 196.99 157.062 197.583 156.625 198.125C156.188 198.667 155.688 198.948 155.125 198.969C154.646 198.969 154.188 198.979 153.75 199C153.333 199.021 152.896 199.052 152.438 199.094C152.375 200.302 152.281 201.521 152.156 202.75C152.031 203.979 151.823 205.167 151.531 206.312C151.26 207.479 150.896 208.562 150.438 209.562C150 210.583 149.448 211.469 148.781 212.219C148.115 212.969 147.312 213.562 146.375 214C145.438 214.438 144.344 214.656 143.094 214.656C142.01 214.656 141.021 214.458 140.125 214.062C139.25 213.688 138.5 213.156 137.875 212.469C137.25 211.802 136.771 211.01 136.438 210.094C136.104 209.177 135.938 208.177 135.938 207.094C135.938 205.469 136.271 204.021 136.938 202.75C137.604 201.5 138.479 200.396 139.562 199.438C140.667 198.479 141.927 197.667 143.344 197C144.76 196.333 146.208 195.771 147.688 195.312V194.688C147.688 193.312 147.667 192.094 147.625 191.031C147.583 189.969 147.562 189.052 147.562 188.281ZM143.219 209.719C143.927 209.719 144.531 209.458 145.031 208.938C145.552 208.417 145.979 207.708 146.312 206.812C146.646 205.917 146.906 204.885 147.094 203.719C147.281 202.573 147.417 201.354 147.5 200.062C145.375 200.729 143.74 201.646 142.594 202.812C141.469 203.979 140.906 205.365 140.906 206.969C140.906 207.948 141.125 208.646 141.562 209.062C142.021 209.5 142.573 209.719 143.219 209.719ZM219.062 183.812C218.771 184.875 218.385 185.99 217.906 187.156C217.448 188.323 216.854 189.396 216.125 190.375C215.396 191.354 214.521 192.167 213.5 192.812C212.479 193.458 211.281 193.781 209.906 193.781C209.052 193.781 208.292 193.615 207.625 193.281C206.979 192.969 206.417 192.542 205.938 192C205.479 191.458 205.125 190.823 204.875 190.094C204.646 189.365 204.531 188.594 204.531 187.781V174.781C204.531 174.281 204.521 173.812 204.5 173.375C204.479 172.938 204.427 172.552 204.344 172.219C204.26 171.885 204.135 171.625 203.969 171.438C203.823 171.229 203.615 171.125 203.344 171.125C202.906 171.125 202.375 171.438 201.75 172.062C201.125 172.688 200.521 173.5 199.938 174.5C199.354 175.5 198.833 176.635 198.375 177.906C197.917 179.156 197.646 180.417 197.562 181.688V191.031C197.562 191.344 197.552 191.667 197.531 192C197.531 192.312 197.469 192.594 197.344 192.844C197.24 193.115 197.062 193.333 196.812 193.5C196.583 193.688 196.24 193.781 195.781 193.781C195.469 193.781 195.125 193.74 194.75 193.656C194.396 193.594 194.062 193.458 193.75 193.25C193.458 193.062 193.208 192.781 193 192.406C192.812 192.052 192.719 191.573 192.719 190.969V174.781C192.719 174.281 192.698 173.812 192.656 173.375C192.635 172.938 192.583 172.552 192.5 172.219C192.417 171.885 192.292 171.625 192.125 171.438C191.979 171.229 191.771 171.125 191.5 171.125C191.062 171.125 190.531 171.438 189.906 172.062C189.302 172.688 188.698 173.5 188.094 174.5C187.51 175.5 186.99 176.635 186.531 177.906C186.094 179.156 185.823 180.417 185.719 181.688V191.031C185.719 191.344 185.708 191.667 185.688 192C185.688 192.312 185.625 192.594 185.5 192.844C185.396 193.115 185.219 193.333 184.969 193.5C184.74 193.688 184.396 193.781 183.938 193.781C183.625 193.781 183.281 193.74 182.906 193.656C182.552 193.594 182.219 193.458 181.906 193.25C181.615 193.062 181.365 192.781 181.156 192.406C180.969 192.052 180.875 191.573 180.875 190.969V170.688C180.875 170.083 180.823 169.646 180.719 169.375C180.635 169.104 180.594 168.854 180.594 168.625C180.594 168.312 180.76 168.062 181.094 167.875C181.427 167.667 181.823 167.562 182.281 167.562C183.344 167.562 184.177 167.844 184.781 168.406C185.406 168.948 185.719 169.604 185.719 170.375V173.062C186.135 172.188 186.583 171.375 187.062 170.625C187.562 169.875 188.094 169.229 188.656 168.688C189.219 168.125 189.812 167.688 190.438 167.375C191.083 167.062 191.771 166.906 192.5 166.906C193.458 166.906 194.25 167.083 194.875 167.438C195.521 167.792 196.031 168.26 196.406 168.844C196.802 169.427 197.083 170.083 197.25 170.812C197.417 171.521 197.521 172.229 197.562 172.938C197.958 172.083 198.396 171.292 198.875 170.562C199.354 169.833 199.875 169.198 200.438 168.656C201 168.115 201.594 167.688 202.219 167.375C202.865 167.062 203.552 166.906 204.281 166.906C205.323 166.906 206.177 167.104 206.844 167.5C207.51 167.896 208.031 168.406 208.406 169.031C208.781 169.656 209.042 170.354 209.188 171.125C209.333 171.896 209.406 172.646 209.406 173.375V186.625C209.406 186.771 209.417 187.01 209.438 187.344C209.458 187.656 209.521 187.979 209.625 188.312C209.729 188.646 209.885 188.938 210.094 189.188C210.323 189.438 210.646 189.562 211.062 189.562C211.708 189.562 212.26 189.333 212.719 188.875C213.198 188.417 213.604 187.844 213.938 187.156C214.292 186.469 214.583 185.729 214.812 184.938C215.042 184.125 215.229 183.365 215.375 182.656C215.5 181.99 215.698 181.51 215.969 181.219C216.26 180.906 216.573 180.75 216.906 180.75C217.156 180.75 217.406 180.833 217.656 181C217.927 181.146 218.167 181.344 218.375 181.594C218.604 181.844 218.781 182.125 218.906 182.438C219.052 182.75 219.125 183.062 219.125 183.375C219.125 183.417 219.125 183.469 219.125 183.531C219.125 183.594 219.104 183.688 219.062 183.812ZM248.562 193.781C247.812 193.781 247.042 193.667 246.25 193.438C245.479 193.208 244.771 192.812 244.125 192.25C243.5 191.688 242.979 190.948 242.562 190.031C242.167 189.094 241.969 187.917 241.969 186.5C241.969 184.438 242.24 182.26 242.781 179.969C243.344 177.656 244.146 175.115 245.188 172.344H240.312H239.594C239.573 172.969 239.531 173.76 239.469 174.719C239.427 175.677 239.344 176.698 239.219 177.781C239.094 178.865 238.927 179.958 238.719 181.062C238.531 182.167 238.292 183.188 238 184.125C237.792 184.792 237.458 185.177 237 185.281C236.562 185.385 236.125 185.312 235.688 185.062C235.25 184.792 234.896 184.406 234.625 183.906C234.354 183.406 234.292 182.885 234.438 182.344C234.604 181.698 234.75 180.917 234.875 180C235 179.062 235.094 178.083 235.156 177.062C235.24 176.021 235.302 174.99 235.344 173.969C235.385 172.927 235.417 172 235.438 171.188C234.646 170.75 233.99 170.198 233.469 169.531C232.948 168.844 232.688 168.031 232.688 167.094C232.688 166.656 232.771 166.26 232.938 165.906C233.125 165.531 233.365 165.219 233.656 164.969C233.948 164.698 234.292 164.5 234.688 164.375C235.083 164.229 235.49 164.156 235.906 164.156C236.281 164.156 236.667 164.208 237.062 164.312C237.479 164.417 237.865 164.604 238.219 164.875C238.594 165.146 238.927 165.5 239.219 165.938C239.51 166.375 239.75 166.917 239.938 167.562C240.458 167.625 240.896 167.677 241.25 167.719C241.625 167.74 241.938 167.76 242.188 167.781C242.438 167.802 242.646 167.812 242.812 167.812C242.979 167.812 243.146 167.812 243.312 167.812H246.656C246.844 167.812 247.115 167.927 247.469 168.156C247.844 168.385 248.208 168.688 248.562 169.062C248.917 169.417 249.208 169.802 249.438 170.219C249.688 170.635 249.781 171.031 249.719 171.406C249.719 171.531 249.646 171.833 249.5 172.312C249.354 172.792 249.177 173.396 248.969 174.125C248.76 174.854 248.531 175.698 248.281 176.656C248.031 177.594 247.802 178.583 247.594 179.625C247.385 180.667 247.208 181.75 247.062 182.875C246.917 183.979 246.844 185.062 246.844 186.125C246.844 186.562 246.896 186.99 247 187.406C247.104 187.823 247.26 188.198 247.469 188.531C247.677 188.844 247.938 189.094 248.25 189.281C248.583 189.469 248.969 189.562 249.406 189.562C250.135 189.562 250.76 189.333 251.281 188.875C251.802 188.417 252.24 187.844 252.594 187.156C252.948 186.469 253.229 185.729 253.438 184.938C253.667 184.125 253.854 183.365 254 182.656C254.125 181.99 254.333 181.51 254.625 181.219C254.917 180.906 255.219 180.75 255.531 180.75C255.781 180.75 256.042 180.833 256.312 181C256.583 181.146 256.823 181.344 257.031 181.594C257.26 181.844 257.438 182.125 257.562 182.438C257.708 182.75 257.781 183.062 257.781 183.375C257.781 183.479 257.771 183.562 257.75 183.625C257.729 183.688 257.719 183.75 257.719 183.812C257.427 184.875 257.042 185.99 256.562 187.156C256.104 188.323 255.51 189.396 254.781 190.375C254.052 191.354 253.177 192.167 252.156 192.812C251.135 193.458 249.938 193.781 248.562 193.781Z" fill="#1C4BB9"/>
</svg>
